# xmcd
#
# Track frame offsets:
#	150
#	13075
#	25978
#	38880
#	51604
#	65204
#	75689
#	85070
#	97620
#	109286
#	122123
#	135600
#	148631
#	158597
#	171088
#	184607
#	197232
#	209937
#	223806
#	234783
#	247457
#	256770
#	269427
#	282302
#
# Disc length: 3914 seconds
#
# Revision: 1
# Processed by: cddbd v1.5.2PL0 Copyright (c) Steve Scherf et al.
# Submitted via: audiograbber 1.83.01
#
DISCID=6d0f4818
DTITLE=Various Artist - Record 3: Lookin' Back Stars -- Record 4: Country Gentlemen
DYEAR=1900
DGENRE=
TTITLE0=The Browns - The Three Bells
TTITLE1=Minnie Pearl - How To Catch A Man (With The Minnie Pearl Plan)
TTITLE2=Ernest Tubb And Red Foley - Too Old To Cut The Mustard
TTITLE3=Tex Williams And His Orchestra - Smoke, Smoke, Smoke
TTITLE4=Patsy Cline - She's Got You
TTITLE5=Johnnie And Jack - Poison Love
TTITLE6=Ernest Tubb - Walking The Floor Over You
TTITLE7=Bob  Wills - San Antonio Rose
TTITLE8=Red Foley - Chattanoogie Shoe Shine Boy
TTITLE9=Roy Rogers - Blue Shadows On The Trail
TTITLE10=Pee Wee King - Tennessee Waltz
TTITLE11=Homer And Jethro - (How Much) Is That Hound Dog In The Window
TTITLE12=Johnny Cash - Ballad Of A Teen-Age Queen
TTITLE13=Eddy Arnold - You Don't Know Me
TTITLE14=Hank Snow - The Gal Who Invented Kissin'
TTITLE15=Porter Wagoner - A Satisfied Mind
TTITLE16=Willie Nelson - I Just Can't Let You Say Goodbye
TTITLE17=Tom T. Hall - The Ballad Of Forty Dollars
TTITLE18=George Hamilton Iv - A Rose And A Baby Ruth
TTITLE19=Lester Flatt and Mac Wiseman - The Bluebirds Are Singing For Me
TTITLE20=Waylon Jennings - Brown Eyed Handsome Man
TTITLE21=Johnny Russell - Red Neck, White Socks And Blue Ribbon Beer
TTITLE22=Bobby Helms - Fraulein
TTITLE23=Webb Pierce And Red Sovine - Why, Baby, Why
EXTD=
EXTT0=
EXTT1=
EXTT2=
EXTT3=
EXTT4=
EXTT5=
EXTT6=
EXTT7=
EXTT8=
EXTT9=
EXTT10=
EXTT11=
EXTT12=
EXTT13=
EXTT14=
EXTT15=
EXTT16=
EXTT17=
EXTT18=
EXTT19=
EXTT20=
EXTT21=
EXTT22=
EXTT23=
PLAYORDER=
